<svg id="Layer_1" data-name="Layer 1" xmlns="http://www.w3.org/2000/svg" xmlns:xlink="http://www.w3.org/1999/xlink" viewBox="0 0 394.9 380.18"><defs><style>.cls-1,.cls-2,.cls-3{fill:#fff;}.cls-1{clip-rule:evenodd;}.cls-3{fill-rule:evenodd;}.cls-4{clip-path:url(#clip-path);}.cls-5{clip-path:url(#clip-path-2);}</style><clipPath id="clip-path" transform="translate(-52.55 -59.91)"><path class="cls-1" d="M300.64,77.86c-71.27,0-129.26,58-129.26,129.25,0,71.05,58,128.86,129.26,128.86A129,129,0,0,0,429.5,207.11c0-71.27-57.81-129.25-128.86-129.25"/></clipPath><clipPath id="clip-path-2" transform="translate(-52.55 -59.91)"><rect class="cls-2" x="70.5" y="77.86" width="63.11" height="344.28"/></clipPath></defs><title>Patreon_Mark_White</title><path class="cls-3" d="M300.64,77.86c-71.27,0-129.26,58-129.26,129.25,0,71.05,58,128.86,129.26,128.86A129,129,0,0,0,429.5,207.11c0-71.27-57.81-129.25-128.86-129.25" transform="translate(-52.55 -59.91)"/><g class="cls-4"><rect class="cls-2" x="100.88" width="294.03" height="294.02"/></g><rect class="cls-2" x="17.95" y="17.95" width="63.11" height="344.28"/><g class="cls-5"><rect class="cls-2" width="99.02" height="380.18"/></g></svg>