<?xml version="1.0" encoding="utf-8"?>
<!-- Generator: Adobe Illustrator 22.0.1, SVG Export Plug-In . SVG Version: 6.00 Build 0)  -->
<svg version="1.1" id="Layer_1" xmlns="http://www.w3.org/2000/svg" xmlns:xlink="http://www.w3.org/1999/xlink" x="0px" y="0px"
	 viewBox="0 0 25 25" style="enable-background:new 0 0 25 25;" xml:space="preserve">
<style type="text/css">
	.st0{fill:#F16382;}
	.st1{fill:#FFFFFF;}
	.st2{fill:#DF465F;}
	.st3{fill:#D6BFC4;}
</style>
<g>
	<path class="st0" d="M19.5,23.5h-12c-2.8,0-5-2.3-5-5v-12c0-2.8,2.3-5,5-5h12c2.8,0,5,2.3,5,5v12C24.5,21.3,22.3,23.5,19.5,23.5z"
		/>
</g>
<g>
	<path class="st0" d="M18.5,23.5h-12c-2.8,0-5-2.3-5-5v-12c0-2.8,2.3-5,5-5h12c2.8,0,5,2.3,5,5v12C23.5,21.3,21.3,23.5,18.5,23.5z"
		/>
</g>
<g>
	<path class="st1" d="M6.5,23C4,23,2,21,2,18.5v-12C2,4,4,2,6.5,2h12C21,2,23,4,23,6.5v12c0,2.5-2,4.5-4.5,4.5H6.5z"/>
	<path class="st2" d="M18.5,2.5c2.2,0,4,1.8,4,4v12c0,2.2-1.8,4-4,4h-12c-2.2,0-4-1.8-4-4v-12c0-2.2,1.8-4,4-4H18.5 M18.5,1.5h-12
		c-2.8,0-5,2.3-5,5v12c0,2.8,2.3,5,5,5h12c2.8,0,5-2.3,5-5v-12C23.5,3.8,21.2,1.5,18.5,1.5L18.5,1.5z"/>
</g>
<g>
	<path class="st3" d="M7.7,5.8h2.9v3c0,2.9-0.2,5-0.6,6.3c-0.6,1.8-1.8,3.2-3.6,4.4h-1L4,18.1c1.3-0.9,2.1-1.8,2.7-2.8
		c0.4-0.8,0.7-1.9,0.9-3.2c0.1-0.8,0.1-1.9,0.1-3.3V5.8z M11.9,5.3h2.9l0,11.8c1.1-0.6,2.1-1.4,2.9-2.4c0.8-1,1-4.1,1-4.1h1l1.5,1.4
		c-0.6,1.6-1.3,3-2.3,4.2c-1.2,1.5-2.8,2.6-4.8,3.5h-1l-1.2-1.1V5.3z"/>
</g>
<g>
	<path class="st2" d="M7.7,5.8h1.9v3c0,2.9-0.2,5-0.6,6.3c-0.6,1.8-1.8,3.2-3.6,4.4L4,18.1c1.3-0.9,2.1-1.8,2.7-2.8
		c0.4-0.8,0.7-1.9,0.9-3.2c0.1-0.8,0.1-1.9,0.1-3.3V5.8z M11.9,5.3h1.9v11.8c1.1-0.6,2.1-1.4,2.9-2.4c0.9-1.2,2-4.1,2-4.1l1.5,1.4
		c-0.6,1.6-1.3,3-2.3,4.2c-1.2,1.5-2.8,2.6-4.8,3.5l-1.2-1.1V5.3z"/>
</g>
</svg>
