<?xml version="1.0" encoding="utf-8"?>
<!-- Generator: Adobe Illustrator 23.0.0, SVG Export Plug-In . SVG Version: 6.00 Build 0)  -->
<svg version="1.1" id="Layer_1" xmlns="http://www.w3.org/2000/svg" xmlns:xlink="http://www.w3.org/1999/xlink" x="0px" y="0px"
	 viewBox="0 0 24 24" enable-background="new 0 0 24 24" xml:space="preserve">
<path fill="#FFFFFF" stroke="#000000" stroke-width="0.75" stroke-linecap="round" stroke-linejoin="round" stroke-miterlimit="10" d="
	M15.5,5.5l-9.7,9.7c-0.6,0.6-0.3,1.5,0.5,1.7l2.6,0.5c0.4,0.1,0.6,0.3,0.8,0.7l0.4,1.1c0.2,0.6,1,0.9,1.5,0.5l2.5-1.9
	c0.3-0.2,0.6-0.3,0.9-0.1l1.2,0.4c0.6,0.2,1.3-0.3,1.3-0.9V5.9c0-0.9-1.1-1.3-1.7-0.7L15.5,5.5z"/>
<polyline fill="none" stroke="#000000" stroke-width="0.5" stroke-linecap="round" stroke-linejoin="round" stroke-miterlimit="10" points="
	9.3,17.5 16.9,5 13.8,18 "/>
<line fill="none" stroke="#000000" stroke-width="0.5" stroke-linecap="round" stroke-linejoin="round" stroke-miterlimit="10" x1="10.7" y1="19.8" x2="16.9" y2="5"/>
</svg>
